<?xml version="1.0" standalone="no"?>
<!DOCTYPE svg PUBLIC "-//W3C//DTD SVG 20010904//EN"
 "http://www.w3.org/TR/2001/REC-SVG-20010904/DTD/svg10.dtd">
<svg version="1.0" xmlns="http://www.w3.org/2000/svg"
 width="512.000000pt" height="512.000000pt" viewBox="0 0 512.000000 512.000000"
 preserveAspectRatio="xMidYMid meet">

<g transform="translate(0.000000,512.000000) scale(0.100000,-0.100000)"
fill="#000000" stroke="none">
<path d="M3833 5006 c-146 -47 -257 -178 -284 -335 -15 -81 8 -193 53 -269
102 -169 313 -243 496 -174 l51 20 58 -62 c209 -219 382 -503 481 -786 92
-263 126 -472 126 -755 0 -227 -16 -352 -70 -563 -212 -830 -901 -1478 -1748
-1642 -933 -181 -1876 244 -2366 1067 -162 271 -268 596 -301 918 -15 147 -7
442 16 575 51 306 179 636 339 878 44 67 51 73 75 68 14 -4 56 -9 93 -13 118
-10 253 46 333 140 175 204 108 521 -134 640 -62 30 -72 32 -176 32 -104 0
-114 -2 -175 -32 -198 -97 -287 -324 -206 -523 l22 -55 -57 -85 c-213 -321
-352 -694 -404 -1085 -19 -143 -22 -447 -5 -590 86 -749 485 -1408 1107 -1828
339 -229 709 -365 1137 -417 116 -14 425 -14 546 0 595 69 1111 320 1527 741
396 401 635 889 715 1459 17 124 17 516 0 635 -80 559 -305 1031 -675 1422
-67 70 -69 73 -58 105 46 146 1 308 -115 418 -81 76 -148 104 -264 107 -61 2
-110 -2 -137 -11z m208 -305 c35 -35 39 -44 39 -89 0 -61 -32 -106 -88 -123
-117 -34 -213 109 -135 201 31 38 55 49 107 49 32 1 45 -6 77 -38z m-3074
-275 c27 -29 33 -44 33 -78 0 -56 -30 -105 -77 -124 -114 -48 -219 79 -156
187 25 43 62 60 117 56 42 -4 55 -10 83 -41z"/>
<path d="M2226 4830 c-122 -22 -249 -121 -304 -237 -24 -52 -27 -69 -27 -168
0 -104 2 -114 32 -176 82 -165 261 -261 432 -230 116 22 213 82 272 171 l34
51 72 -5 c150 -12 388 -78 524 -146 340 -171 605 -440 758 -772 113 -244 165
-535 142 -790 -21 -231 -64 -386 -161 -583 -68 -139 -141 -249 -237 -355 -333
-369 -774 -557 -1263 -537 -527 22 -988 288 -1278 736 l-61 94 31 36 c131 150
119 401 -27 547 -238 238 -635 111 -697 -223 -23 -126 26 -266 126 -361 73
-69 149 -104 240 -110 l71 -4 38 -67 c259 -453 724 -786 1252 -897 165 -35
457 -44 625 -20 216 32 377 80 565 171 207 100 373 222 545 402 138 143 224
266 313 443 167 333 233 675 197 1031 -51 496 -289 946 -669 1263 -278 232
-649 389 -1000 424 l-73 7 -17 46 c-69 180 -266 292 -455 259z m133 -294 c114
-59 70 -236 -58 -236 -79 0 -131 52 -131 130 0 36 6 48 39 81 32 33 45 39 80
39 23 0 55 -7 70 -14z m-1434 -2240 c45 -19 75 -69 75 -124 0 -121 -172 -166
-234 -60 -40 66 -16 144 55 180 41 22 59 22 104 4z"/>
<path d="M3260 3834 c-151 -41 -261 -157 -296 -311 -21 -93 -9 -184 36 -272
75 -150 263 -250 414 -222 56 10 54 12 92 -115 32 -110 44 -302 24 -421 -48
-298 -241 -565 -513 -708 -559 -295 -1250 21 -1398 640 -36 154 -34 332 5 467
12 41 14 42 62 45 100 8 214 64 277 136 45 52 86 141 98 215 22 132 -35 286
-137 370 -251 208 -618 72 -674 -250 -19 -109 17 -238 90 -321 l32 -37 -21
-83 c-164 -649 190 -1301 822 -1512 341 -114 722 -74 1031 109 109 64 178 120
274 220 224 233 343 529 345 851 0 192 -28 337 -98 506 l-24 55 30 60 c79 160
51 340 -74 468 -105 106 -255 148 -397 110z m178 -292 c73 -47 68 -171 -8
-216 -85 -50 -190 10 -190 109 0 105 110 164 198 107z m-1710 -90 c48 -31 67
-118 38 -170 -31 -57 -118 -79 -176 -46 -97 58 -70 219 41 236 34 5 70 -3 97
-20z"/>
</g>
</svg>
